<svg xmlns="http://www.w3.org/2000/svg" viewBox="0 0 280 280" width="280" height="280">
  <style>text { font-family: "Microsoft YaHei", SimSun, sans-serif; }</style>
  <circle cx="140" cy="140" r="110" fill="#fffef5" stroke="#333" stroke-width="3"/>
    <line x1="140.0" y1="35.0" x2="140.0" y2="45.0" stroke="#333" stroke-width="2"/>
  <line x1="192.5" y1="49.1" x2="187.5" y2="57.7" stroke="#333" stroke-width="2"/>
  <line x1="230.9" y1="87.5" x2="222.3" y2="92.5" stroke="#333" stroke-width="2"/>
  <line x1="245.0" y1="140.0" x2="235.0" y2="140.0" stroke="#333" stroke-width="2"/>
  <line x1="230.9" y1="192.5" x2="222.3" y2="187.5" stroke="#333" stroke-width="2"/>
  <line x1="192.5" y1="230.9" x2="187.5" y2="222.3" stroke="#333" stroke-width="2"/>
  <line x1="140.0" y1="245.0" x2="140.0" y2="235.0" stroke="#333" stroke-width="2"/>
  <line x1="87.5" y1="230.9" x2="92.5" y2="222.3" stroke="#333" stroke-width="2"/>
  <line x1="49.1" y1="192.5" x2="57.7" y2="187.5" stroke="#333" stroke-width="2"/>
  <line x1="35.0" y1="140.0" x2="45.0" y2="140.0" stroke="#333" stroke-width="2"/>
  <line x1="49.1" y1="87.5" x2="57.7" y2="92.5" stroke="#333" stroke-width="2"/>
  <line x1="87.5" y1="49.1" x2="92.5" y2="57.7" stroke="#333" stroke-width="2"/>
    <text x="140.0" y="65.0" text-anchor="middle" font-weight="bold" font-size="16">12</text>
  <text x="180.0" y="75.7" text-anchor="middle" font-weight="bold" font-size="16">1</text>
  <text x="209.3" y="105.0" text-anchor="middle" font-weight="bold" font-size="16">2</text>
  <text x="220.0" y="145.0" text-anchor="middle" font-weight="bold" font-size="16">3</text>
  <text x="209.3" y="185.0" text-anchor="middle" font-weight="bold" font-size="16">4</text>
  <text x="180.0" y="214.3" text-anchor="middle" font-weight="bold" font-size="16">5</text>
  <text x="140.0" y="225.0" text-anchor="middle" font-weight="bold" font-size="16">6</text>
  <text x="100.0" y="214.3" text-anchor="middle" font-weight="bold" font-size="16">7</text>
  <text x="70.7" y="185.0" text-anchor="middle" font-weight="bold" font-size="16">8</text>
  <text x="60.0" y="145.0" text-anchor="middle" font-weight="bold" font-size="16">9</text>
  <text x="70.7" y="105.0" text-anchor="middle" font-weight="bold" font-size="16">10</text>
  <text x="100.0" y="75.7" text-anchor="middle" font-weight="bold" font-size="16">11</text>
  <line x1="140" y1="140" x2="92.0" y2="154.1" stroke="#333" stroke-width="5" stroke-linecap="round"/>
  <line x1="140" y1="140" x2="161.2" y2="211.9" stroke="#e03a3a" stroke-width="3" stroke-linecap="round"/>
  <circle cx="140" cy="140" r="5" fill="#333"/>
  <text x="140" y="265" text-anchor="middle" font-size="14">8时27分多，两针垂直</text>
</svg>