<?xml version="1.0" encoding="UTF-8"?>
<svg xmlns="http://www.w3.org/2000/svg" xmlns:xlink="http://www.w3.org/1999/xlink" width="1920" height="1080" viewBox="0 0 1920 1080">
<defs>
<g>
<g id="glyph-0-0">
<path d="M 5.3125 -1.625 C 5.425781 -1.574219 5.601562 -1.511719 5.84375 -1.441406 C 5.789062 -0.980469 5.730469 -0.589844 5.664062 -0.273438 C 5.5625 0.222656 5.144531 0.472656 4.402344 0.480469 C 3.417969 0.484375 2.507812 0.488281 1.675781 0.488281 C 0.839844 0.46875 0.421875 0.191406 0.421875 -0.355469 C 0.421875 -0.6875 0.601562 -1.035156 0.960938 -1.386719 C 1.859375 -2.242188 2.941406 -3.160156 4.199219 -4.136719 L 0.488281 -4.136719 L 0.488281 -4.609375 L 5.007812 -4.609375 L 5.007812 -4.101562 C 3.472656 -2.9375 2.265625 -1.9375 1.390625 -1.101562 C 1.109375 -0.832031 0.964844 -0.601562 0.964844 -0.414062 C 0.964844 -0.132812 1.230469 0.015625 1.753906 0.0273438 C 2.53125 0.0429688 3.355469 0.0390625 4.230469 0.015625 C 4.808594 0.0117188 5.128906 -0.167969 5.199219 -0.523438 C 5.253906 -0.816406 5.292969 -1.183594 5.3125 -1.625 Z "/>
</g>
<g id="glyph-0-1">
<path d="M 0.121094 -0.867188 L 2.824219 -0.867188 L 2.824219 -1.542969 L 1.167969 -1.542969 L 1.167969 -1.261719 L 0.714844 -1.261719 L 0.714844 -4.15625 L 1.953125 -4.15625 C 1.761719 -4.378906 1.558594 -4.609375 1.335938 -4.84375 L 1.675781 -5.125 C 1.972656 -4.839844 2.230469 -4.578125 2.453125 -4.339844 L 2.230469 -4.15625 L 3.632812 -4.15625 C 3.851562 -4.445312 4.070312 -4.761719 4.296875 -5.105469 L 4.773438 -4.847656 C 4.570312 -4.601562 4.371094 -4.371094 4.179688 -4.15625 L 5.402344 -4.15625 L 5.402344 -1.261719 L 4.945312 -1.261719 L 4.945312 -1.542969 L 3.289062 -1.542969 L 3.289062 -0.867188 L 5.992188 -0.867188 L 5.992188 -0.4375 L 3.289062 -0.4375 L 3.289062 0.820312 L 2.824219 0.820312 L 2.824219 -0.4375 L 0.121094 -0.4375 L 0.121094 -0.867188 M 3.289062 -1.960938 L 4.945312 -1.960938 L 4.945312 -2.652344 L 3.289062 -2.652344 L 3.289062 -1.960938 M 1.167969 -1.960938 L 2.824219 -1.960938 L 2.824219 -2.652344 L 1.167969 -2.652344 L 1.167969 -1.960938 M 4.945312 -3.738281 L 3.289062 -3.738281 L 3.289062 -3.058594 L 4.945312 -3.058594 L 4.945312 -3.738281 M 1.167969 -3.058594 L 2.824219 -3.058594 L 2.824219 -3.738281 L 1.167969 -3.738281 Z "/>
</g>
<g id="glyph-0-2">
<path d="M 4.820312 -0.988281 L 5.214844 -1.160156 C 5.542969 -0.554688 5.8125 -0.00390625 6.03125 0.5 L 5.578125 0.703125 C 5.496094 0.503906 5.417969 0.3125 5.339844 0.125 C 4.433594 0.21875 3.355469 0.335938 2.105469 0.480469 L 2.015625 0.00390625 C 2.648438 -0.0429688 3.226562 -0.0898438 3.757812 -0.136719 L 3.757812 -1.589844 L 2.824219 -1.589844 L 2.824219 -1.332031 L 2.386719 -1.332031 L 2.386719 -3.929688 L 3.757812 -3.929688 L 3.757812 -5.046875 L 4.207031 -5.046875 L 4.207031 -3.929688 L 5.578125 -3.929688 L 5.578125 -1.589844 L 4.207031 -1.589844 L 4.207031 -0.175781 C 4.550781 -0.207031 4.867188 -0.234375 5.164062 -0.261719 C 5.050781 -0.511719 4.9375 -0.753906 4.820312 -0.988281 M 0.09375 -1.230469 C 0.597656 -1.605469 1.007812 -2.035156 1.332031 -2.519531 C 1.285156 -2.832031 1.214844 -3.097656 1.109375 -3.320312 C 0.878906 -3.097656 0.644531 -2.898438 0.410156 -2.722656 C 0.34375 -2.820312 0.246094 -2.929688 0.113281 -3.050781 C 0.390625 -3.25 0.65625 -3.476562 0.910156 -3.726562 C 0.730469 -4.046875 0.492188 -4.347656 0.203125 -4.640625 L 0.535156 -4.882812 C 0.8125 -4.621094 1.042969 -4.34375 1.226562 -4.058594 C 1.433594 -4.292969 1.636719 -4.550781 1.832031 -4.824219 L 2.203125 -4.585938 C 1.953125 -4.246094 1.699219 -3.941406 1.445312 -3.664062 C 1.746094 -3.046875 1.890625 -2.082031 1.875 -0.773438 C 1.867188 0.136719 1.558594 0.59375 0.949219 0.59375 C 0.757812 0.59375 0.539062 0.585938 0.292969 0.570312 C 0.277344 0.402344 0.25 0.230469 0.214844 0.0585938 C 0.464844 0.105469 0.691406 0.128906 0.890625 0.128906 C 1.253906 0.128906 1.441406 -0.191406 1.445312 -0.832031 C 1.453125 -1.230469 1.441406 -1.601562 1.410156 -1.953125 C 1.125 -1.566406 0.789062 -1.214844 0.40625 -0.898438 C 0.335938 -0.992188 0.230469 -1.105469 0.09375 -1.230469 M 5.144531 -2.007812 L 5.144531 -3.511719 L 4.207031 -3.511719 L 4.207031 -2.007812 L 5.144531 -2.007812 M 2.824219 -2.007812 L 3.757812 -2.007812 L 3.757812 -3.511719 L 2.824219 -3.511719 Z "/>
</g>
<g id="glyph-0-3">
<path d="M 4.375 -5.046875 L 4.808594 -4.972656 C 4.738281 -4.597656 4.65625 -4.242188 4.566406 -3.910156 L 5.980469 -3.910156 L 5.980469 -3.523438 L 5.675781 -3.523438 C 5.621094 -2.382812 5.417969 -1.457031 5.074219 -0.75 C 5.328125 -0.3125 5.652344 0.0390625 6.046875 0.300781 C 5.941406 0.449219 5.847656 0.597656 5.765625 0.742188 C 5.386719 0.441406 5.074219 0.0859375 4.820312 -0.320312 C 4.542969 0.0976562 4.191406 0.492188 3.769531 0.863281 C 3.691406 0.746094 3.59375 0.621094 3.472656 0.488281 C 3.953125 0.0820312 4.324219 -0.335938 4.578125 -0.761719 C 4.324219 -1.300781 4.160156 -1.921875 4.085938 -2.617188 C 3.992188 -2.414062 3.890625 -2.222656 3.785156 -2.042969 C 3.710938 -2.164062 3.625 -2.289062 3.519531 -2.425781 C 3.929688 -3.144531 4.214844 -4.019531 4.375 -5.046875 M 1.742188 -2.253906 L 2.421875 -2.253906 L 2.421875 -3.441406 L 1.472656 -3.441406 L 1.472656 -3.847656 L 2.421875 -3.847656 L 2.421875 -5.003906 L 2.863281 -5.003906 L 2.863281 -3.847656 L 3.8125 -3.847656 L 3.8125 -3.441406 L 2.863281 -3.441406 L 2.863281 -2.253906 L 3.582031 -2.253906 L 3.582031 -0.0625 L 2.171875 -0.0625 L 2.171875 0.347656 L 1.742188 0.347656 L 1.742188 -2.253906 M 0.0351562 -2.222656 C 0.554688 -3.046875 0.933594 -3.988281 1.179688 -5.046875 L 1.625 -4.933594 C 1.496094 -4.464844 1.355469 -4.03125 1.207031 -3.625 L 1.207031 0.808594 L 0.800781 0.808594 L 0.800781 -2.695312 C 0.621094 -2.339844 0.429688 -2.015625 0.226562 -1.722656 C 0.171875 -1.878906 0.105469 -2.046875 0.0351562 -2.222656 M 3.152344 -1.859375 L 2.171875 -1.859375 L 2.171875 -0.457031 L 3.152344 -0.457031 L 3.152344 -1.859375 M 5.234375 -3.523438 L 4.445312 -3.523438 C 4.429688 -3.476562 4.414062 -3.429688 4.398438 -3.386719 C 4.445312 -2.554688 4.589844 -1.84375 4.828125 -1.257812 C 5.0625 -1.832031 5.199219 -2.589844 5.234375 -3.523438 Z "/>
</g>
<g id="glyph-0-4">
<path d="M 1.132812 0.785156 L 0.679688 0.785156 L 0.679688 -1.171875 L 2.625 -1.171875 L 2.722656 -1.636719 L 0.121094 -1.636719 L 0.121094 -2.007812 L 5.992188 -2.007812 L 5.992188 -1.636719 L 3.1875 -1.636719 L 3.066406 -1.171875 L 5.460938 -1.171875 L 5.460938 0.164062 C 5.460938 0.558594 5.261719 0.753906 4.871094 0.753906 C 4.679688 0.753906 4.46875 0.75 4.242188 0.742188 C 4.230469 0.613281 4.203125 0.457031 4.160156 0.285156 C 4.394531 0.308594 4.585938 0.320312 4.738281 0.320312 C 4.917969 0.320312 5.007812 0.238281 5.007812 0.0820312 L 5.007812 -0.800781 L 3.980469 -0.800781 L 3.980469 0.617188 L 3.554688 0.617188 L 3.554688 -0.800781 L 2.566406 -0.800781 L 2.566406 0.617188 L 2.140625 0.617188 L 2.140625 -0.800781 L 1.132812 -0.800781 L 1.132812 0.785156 M 0.320312 -4.074219 L 2.839844 -4.074219 L 2.839844 -4.417969 L 0.621094 -4.417969 L 0.621094 -4.789062 L 5.441406 -4.789062 L 5.441406 -4.417969 L 3.265625 -4.417969 L 3.265625 -4.074219 L 5.789062 -4.074219 L 5.789062 -2.960938 L 5.328125 -2.960938 L 5.328125 -3.703125 L 3.265625 -3.703125 L 3.265625 -2.28125 L 2.839844 -2.28125 L 2.839844 -3.703125 L 0.78125 -3.703125 L 0.78125 -2.960938 L 0.320312 -2.960938 L 0.320312 -4.074219 M 3.582031 -2.6875 L 4.984375 -2.6875 L 4.984375 -2.367188 L 3.582031 -2.367188 L 3.582031 -2.6875 M 1.121094 -3.355469 L 2.523438 -3.355469 L 2.523438 -3.035156 L 1.121094 -3.035156 L 1.121094 -3.355469 M 1.121094 -2.6875 L 2.523438 -2.6875 L 2.523438 -2.367188 L 1.121094 -2.367188 L 1.121094 -2.6875 M 3.582031 -3.355469 L 4.984375 -3.355469 L 4.984375 -3.035156 L 3.582031 -3.035156 Z "/>
</g>
<g id="glyph-0-5">
<path d="M 3.265625 -4.261719 C 2.78125 -3.414062 2.402344 -2.628906 2.121094 -1.90625 C 1.84375 -1.1875 1.675781 -0.550781 1.609375 0 L 1 0 C 1.074219 -0.542969 1.246094 -1.164062 1.523438 -1.859375 C 1.796875 -2.554688 2.164062 -3.304688 2.621094 -4.105469 L 0.332031 -4.105469 L 0.332031 -4.621094 L 3.265625 -4.621094 Z "/>
</g>
<g id="glyph-0-6">
<path d="M 0.355469 -0.308594 C 0.355469 -0.414062 0.390625 -0.503906 0.464844 -0.578125 C 0.539062 -0.652344 0.628906 -0.6875 0.738281 -0.6875 C 0.851562 -0.6875 0.945312 -0.652344 1.015625 -0.578125 C 1.089844 -0.503906 1.128906 -0.414062 1.128906 -0.308594 C 1.128906 -0.203125 1.089844 -0.113281 1.015625 -0.0390625 C 0.945312 0.0351562 0.851562 0.0703125 0.738281 0.0703125 C 0.628906 0.0703125 0.535156 0.0351562 0.464844 -0.0390625 C 0.390625 -0.113281 0.355469 -0.203125 0.355469 -0.308594 Z "/>
</g>
<g id="glyph-0-7">
<path d="M 0.425781 -0.773438 C 0.742188 -0.527344 1.101562 -0.40625 1.496094 -0.40625 C 1.816406 -0.40625 2.066406 -0.484375 2.253906 -0.640625 C 2.441406 -0.796875 2.53125 -1.003906 2.53125 -1.269531 C 2.53125 -1.851562 2.113281 -2.144531 1.277344 -2.144531 L 0.890625 -2.144531 L 0.890625 -2.628906 L 1.257812 -2.628906 C 2 -2.628906 2.371094 -2.902344 2.371094 -3.453125 C 2.371094 -3.960938 2.089844 -4.214844 1.523438 -4.214844 C 1.199219 -4.214844 0.890625 -4.105469 0.605469 -3.886719 L 0.605469 -4.4375 C 0.90625 -4.613281 1.261719 -4.699219 1.664062 -4.699219 C 2.058594 -4.699219 2.375 -4.597656 2.613281 -4.390625 C 2.851562 -4.183594 2.972656 -3.917969 2.972656 -3.589844 C 2.972656 -2.984375 2.664062 -2.597656 2.046875 -2.421875 L 2.046875 -2.410156 C 2.382812 -2.375 2.644531 -2.257812 2.839844 -2.058594 C 3.03125 -1.855469 3.128906 -1.609375 3.128906 -1.308594 C 3.128906 -0.894531 2.980469 -0.558594 2.679688 -0.304688 C 2.382812 -0.0507812 1.984375 0.078125 1.484375 0.078125 C 1.046875 0.078125 0.695312 -0.00390625 0.425781 -0.167969 Z "/>
</g>
<g id="glyph-0-8">
<path d="M 1.445312 -3.703125 L 1.933594 -3.53125 C 1.550781 -2.441406 1.105469 -1.414062 0.597656 -0.457031 C 0.460938 -0.539062 0.296875 -0.628906 0.105469 -0.726562 C 0.566406 -1.496094 1.011719 -2.488281 1.445312 -3.703125 M 4.105469 -3.476562 L 4.554688 -3.691406 C 5.058594 -2.773438 5.550781 -1.804688 6.03125 -0.789062 L 5.488281 -0.535156 C 5.003906 -1.660156 4.542969 -2.640625 4.105469 -3.476562 M 2.863281 -5.007812 L 3.394531 -5.007812 L 3.394531 -0.0625 C 3.394531 0.453125 3.113281 0.714844 2.554688 0.714844 C 2.332031 0.714844 2.035156 0.707031 1.664062 0.695312 C 1.636719 0.519531 1.601562 0.332031 1.5625 0.132812 C 1.945312 0.171875 2.238281 0.1875 2.441406 0.1875 C 2.722656 0.1875 2.863281 0.0625 2.863281 -0.195312 Z "/>
</g>
<g id="glyph-0-9">
<path d="M 0.328125 -4.515625 L 2.386719 -4.515625 L 2.386719 0.347656 L 1.914062 0.347656 L 1.914062 -0.144531 L 0.800781 -0.144531 L 0.800781 0.421875 L 0.328125 0.421875 L 0.328125 -4.515625 M 2.582031 -3.761719 L 4.703125 -3.761719 L 4.703125 -5.082031 L 5.179688 -5.082031 L 5.179688 -3.761719 L 6.027344 -3.761719 L 6.027344 -3.320312 L 5.179688 -3.320312 L 5.179688 -0.109375 C 5.179688 0.421875 4.925781 0.6875 4.414062 0.6875 C 4.183594 0.6875 3.847656 0.683594 3.402344 0.671875 C 3.382812 0.527344 3.351562 0.359375 3.304688 0.171875 C 3.722656 0.203125 4.050781 0.21875 4.285156 0.21875 C 4.5625 0.21875 4.703125 0.078125 4.703125 -0.207031 L 4.703125 -3.320312 L 2.582031 -3.320312 L 2.582031 -3.761719 M 0.800781 -0.585938 L 1.914062 -0.585938 L 1.914062 -2.132812 L 0.800781 -2.132812 L 0.800781 -0.585938 M 1.914062 -4.074219 L 0.800781 -4.074219 L 0.800781 -2.5625 L 1.914062 -2.5625 L 1.914062 -4.074219 M 3.253906 -2.746094 C 3.570312 -2.167969 3.8125 -1.703125 3.972656 -1.359375 C 3.871094 -1.308594 3.710938 -1.230469 3.496094 -1.117188 C 3.339844 -1.496094 3.117188 -1.96875 2.828125 -2.53125 Z "/>
</g>
</g>
</defs>
<g fill="rgb(100%, 100%, 0%)" fill-opacity="1">
<use xlink:href="#glyph-0-0" x="30" y="26.46582"/>
<use xlink:href="#glyph-0-1" x="36" y="26.46582"/>
<use xlink:href="#glyph-0-2" x="42" y="26.46582"/>
<use xlink:href="#glyph-0-3" x="48" y="26.46582"/>
<use xlink:href="#glyph-0-4" x="54" y="26.46582"/>
<use xlink:href="#glyph-0-5" x="60" y="26.46582"/>
<use xlink:href="#glyph-0-6" x="64" y="26.46582"/>
<use xlink:href="#glyph-0-7" x="65" y="26.46582"/>
<use xlink:href="#glyph-0-8" x="69" y="26.46582"/>
<use xlink:href="#glyph-0-9" x="75" y="26.46582"/>
</g>
</svg>
