<?xml version="1.0" encoding="UTF-8"?>
<svg xmlns="http://www.w3.org/2000/svg" xmlns:xlink="http://www.w3.org/1999/xlink" width="1920" height="1080" viewBox="0 0 1920 1080">
<defs>
<g>
<g id="glyph-0-0">
<path d="M 0.566406 0.175781 L 2.835938 0.175781 L 2.835938 -0.59375 L 0.316406 -0.59375 L 0.316406 -0.988281 L 1.355469 -0.988281 L 1.355469 -1.941406 L 0.132812 -1.941406 L 0.132812 -2.335938 L 1.355469 -2.335938 L 1.355469 -3.253906 L 0.347656 -3.253906 L 0.347656 -3.648438 L 2.835938 -3.648438 L 2.835938 -4.378906 C 2.113281 -4.359375 1.367188 -4.339844 0.597656 -4.324219 C 0.574219 -4.449219 0.546875 -4.589844 0.511719 -4.742188 C 2.53125 -4.765625 4.164062 -4.820312 5.414062 -4.902344 L 5.484375 -4.484375 C 4.777344 -4.449219 4.042969 -4.421875 3.277344 -4.394531 L 3.277344 -3.648438 L 5.777344 -3.648438 L 5.777344 -3.253906 L 4.757812 -3.253906 L 4.757812 -2.335938 L 5.980469 -2.335938 L 5.980469 -1.941406 L 4.757812 -1.941406 L 4.757812 -0.988281 L 5.792969 -0.988281 L 5.792969 -0.59375 L 3.277344 -0.59375 L 3.277344 0.175781 L 5.542969 0.175781 L 5.542969 0.570312 L 0.566406 0.570312 L 0.566406 0.175781 M 1.785156 -0.988281 L 2.835938 -0.988281 L 2.835938 -1.941406 L 1.785156 -1.941406 L 1.785156 -0.988281 M 3.277344 -0.988281 L 4.328125 -0.988281 L 4.328125 -1.941406 L 3.277344 -1.941406 L 3.277344 -0.988281 M 1.785156 -2.335938 L 2.835938 -2.335938 L 2.835938 -3.253906 L 1.785156 -3.253906 L 1.785156 -2.335938 M 3.277344 -2.335938 L 4.328125 -2.335938 L 4.328125 -3.253906 L 3.277344 -3.253906 Z "/>
</g>
<g id="glyph-0-1">
<path d="M 0.113281 0.144531 L 0.925781 0.144531 L 0.925781 -3.570312 L 2.769531 -3.570312 L 2.769531 -4.121094 L 0.234375 -4.121094 L 0.234375 -4.539062 L 2.769531 -4.539062 L 2.769531 -5.085938 L 3.246094 -5.085938 L 3.246094 -4.539062 L 5.894531 -4.539062 L 5.894531 -4.121094 L 3.246094 -4.121094 L 3.246094 -3.570312 L 5.15625 -3.570312 L 5.15625 0.144531 L 6.007812 0.144531 L 6.007812 0.5625 L 0.113281 0.5625 L 0.113281 0.144531 M 1.382812 0.144531 L 4.695312 0.144531 L 4.695312 -0.402344 L 1.382812 -0.402344 L 1.382812 0.144531 M 4.695312 -3.175781 L 1.382812 -3.175781 L 1.382812 -2.632812 L 4.695312 -2.632812 L 4.695312 -3.175781 M 1.382812 -0.785156 L 4.695312 -0.785156 L 4.695312 -1.328125 L 1.382812 -1.328125 L 1.382812 -0.785156 M 1.382812 -1.710938 L 4.695312 -1.710938 L 4.695312 -2.253906 L 1.382812 -2.253906 Z "/>
</g>
<g id="glyph-0-2">
<path d="M 0.328125 -4.515625 L 2.386719 -4.515625 L 2.386719 0.347656 L 1.914062 0.347656 L 1.914062 -0.144531 L 0.800781 -0.144531 L 0.800781 0.421875 L 0.328125 0.421875 L 0.328125 -4.515625 M 2.582031 -3.761719 L 4.703125 -3.761719 L 4.703125 -5.082031 L 5.179688 -5.082031 L 5.179688 -3.761719 L 6.027344 -3.761719 L 6.027344 -3.320312 L 5.179688 -3.320312 L 5.179688 -0.109375 C 5.179688 0.421875 4.925781 0.6875 4.414062 0.6875 C 4.183594 0.6875 3.847656 0.683594 3.402344 0.671875 C 3.382812 0.527344 3.351562 0.359375 3.304688 0.171875 C 3.722656 0.203125 4.050781 0.21875 4.285156 0.21875 C 4.5625 0.21875 4.703125 0.078125 4.703125 -0.207031 L 4.703125 -3.320312 L 2.582031 -3.320312 L 2.582031 -3.761719 M 0.800781 -0.585938 L 1.914062 -0.585938 L 1.914062 -2.132812 L 0.800781 -2.132812 L 0.800781 -0.585938 M 1.914062 -4.074219 L 0.800781 -4.074219 L 0.800781 -2.5625 L 1.914062 -2.5625 L 1.914062 -4.074219 M 3.253906 -2.746094 C 3.570312 -2.167969 3.8125 -1.703125 3.972656 -1.359375 C 3.871094 -1.308594 3.710938 -1.230469 3.496094 -1.117188 C 3.339844 -1.496094 3.117188 -1.96875 2.828125 -2.53125 Z "/>
</g>
<g id="glyph-0-3">
<path d="M 2.613281 -4.667969 L 5.753906 -4.667969 L 5.753906 0.785156 L 5.300781 0.785156 L 5.300781 0.378906 L 3.066406 0.378906 L 3.066406 0.785156 L 2.613281 0.785156 L 2.613281 -4.667969 M 0.0898438 -1.34375 C 0.527344 -1.957031 0.859375 -2.664062 1.078125 -3.457031 L 0.160156 -3.457031 L 0.160156 -3.859375 L 1.085938 -3.859375 L 1.085938 -5.046875 L 1.523438 -5.046875 L 1.523438 -3.859375 L 2.394531 -3.859375 L 2.394531 -3.457031 L 1.523438 -3.457031 L 1.523438 -2.417969 L 1.761719 -2.664062 C 2.035156 -2.398438 2.289062 -2.140625 2.519531 -1.894531 L 2.195312 -1.578125 C 1.976562 -1.835938 1.753906 -2.089844 1.523438 -2.332031 L 1.523438 0.773438 L 1.085938 0.773438 L 1.085938 -2.332031 C 0.871094 -1.742188 0.609375 -1.242188 0.304688 -0.828125 C 0.246094 -0.996094 0.171875 -1.171875 0.0898438 -1.34375 M 3.066406 -0.0273438 L 5.300781 -0.0273438 L 5.300781 -1.183594 L 3.066406 -1.183594 L 3.066406 -0.0273438 M 5.300781 -4.265625 L 3.066406 -4.265625 L 3.066406 -3.117188 L 5.300781 -3.117188 L 5.300781 -4.265625 M 3.066406 -1.578125 L 5.300781 -1.578125 L 5.300781 -2.722656 L 3.066406 -2.722656 Z "/>
</g>
<g id="glyph-0-4">
<path d="M 1.042969 0.164062 L 3.265625 0.164062 L 3.265625 -0.851562 L 1.730469 -0.851562 L 1.730469 -1.039062 C 1.339844 -0.597656 0.871094 -0.1875 0.316406 0.1875 C 0.238281 0.0625 0.140625 -0.0820312 0.03125 -0.234375 C 0.78125 -0.734375 1.363281 -1.285156 1.773438 -1.894531 L 0.191406 -1.894531 L 0.191406 -2.300781 L 2.023438 -2.300781 C 2.121094 -2.480469 2.214844 -2.679688 2.300781 -2.890625 L 0.609375 -2.890625 L 0.609375 -3.292969 L 2.453125 -3.292969 C 2.515625 -3.46875 2.570312 -3.660156 2.625 -3.859375 L 0.464844 -3.859375 L 0.464844 -4.265625 L 1.980469 -4.265625 C 1.8125 -4.472656 1.636719 -4.683594 1.445312 -4.890625 L 1.785156 -5.152344 C 2.015625 -4.929688 2.234375 -4.699219 2.445312 -4.460938 L 2.175781 -4.265625 L 4.027344 -4.265625 L 3.796875 -4.472656 C 4.03125 -4.703125 4.238281 -4.933594 4.421875 -5.160156 L 4.828125 -4.890625 C 4.625 -4.667969 4.417969 -4.457031 4.214844 -4.265625 L 5.777344 -4.265625 L 5.777344 -3.859375 L 3.140625 -3.859375 C 3.089844 -3.660156 3.03125 -3.472656 2.96875 -3.292969 L 5.550781 -3.292969 L 5.550781 -2.890625 L 2.828125 -2.890625 C 2.75 -2.683594 2.664062 -2.484375 2.574219 -2.300781 L 6.007812 -2.300781 L 6.007812 -1.894531 L 2.355469 -1.894531 C 2.222656 -1.671875 2.074219 -1.457031 1.90625 -1.25 L 5.359375 -1.25 L 5.359375 -0.851562 L 3.746094 -0.851562 L 3.746094 0.164062 L 5.933594 0.164062 L 5.933594 0.570312 L 1.042969 0.570312 Z "/>
</g>
<g id="glyph-0-5">
<path d="M 1.699219 0 L 1.699219 -3.953125 C 1.609375 -3.863281 1.453125 -3.757812 1.238281 -3.644531 C 1.019531 -3.53125 0.816406 -3.453125 0.632812 -3.40625 L 0.632812 -3.980469 C 0.878906 -4.046875 1.140625 -4.15625 1.417969 -4.304688 C 1.695312 -4.453125 1.910156 -4.59375 2.058594 -4.722656 L 2.28125 -4.722656 L 2.28125 0 Z "/>
</g>
<g id="glyph-0-6">
<path d="M 3.144531 -1.425781 C 3.144531 -0.976562 2.996094 -0.609375 2.695312 -0.335938 C 2.394531 -0.0585938 1.992188 0.0820312 1.488281 0.0820312 C 1.054688 0.0820312 0.730469 0.015625 0.519531 -0.113281 L 0.519531 -0.710938 C 0.832031 -0.507812 1.148438 -0.40625 1.472656 -0.40625 C 1.796875 -0.40625 2.054688 -0.496094 2.253906 -0.671875 C 2.453125 -0.851562 2.550781 -1.085938 2.550781 -1.382812 C 2.550781 -1.675781 2.449219 -1.90625 2.242188 -2.070312 C 2.035156 -2.234375 1.746094 -2.316406 1.371094 -2.316406 C 1.078125 -2.316406 0.816406 -2.300781 0.585938 -2.277344 L 0.753906 -4.621094 L 2.914062 -4.621094 L 2.914062 -4.109375 L 1.246094 -4.109375 L 1.152344 -2.796875 L 1.574219 -2.816406 C 2.0625 -2.816406 2.445312 -2.695312 2.726562 -2.449219 C 3.003906 -2.207031 3.144531 -1.867188 3.144531 -1.425781 Z "/>
</g>
<g id="glyph-0-7">
<path d="M 1.445312 -3.703125 L 1.933594 -3.53125 C 1.550781 -2.441406 1.105469 -1.414062 0.597656 -0.457031 C 0.460938 -0.539062 0.296875 -0.628906 0.105469 -0.726562 C 0.566406 -1.496094 1.011719 -2.488281 1.445312 -3.703125 M 4.105469 -3.476562 L 4.554688 -3.691406 C 5.058594 -2.773438 5.550781 -1.804688 6.03125 -0.789062 L 5.488281 -0.535156 C 5.003906 -1.660156 4.542969 -2.640625 4.105469 -3.476562 M 2.863281 -5.007812 L 3.394531 -5.007812 L 3.394531 -0.0625 C 3.394531 0.453125 3.113281 0.714844 2.554688 0.714844 C 2.332031 0.714844 2.035156 0.707031 1.664062 0.695312 C 1.636719 0.519531 1.601562 0.332031 1.5625 0.132812 C 1.945312 0.171875 2.238281 0.1875 2.441406 0.1875 C 2.722656 0.1875 2.863281 0.0625 2.863281 -0.195312 Z "/>
</g>
<g id="glyph-0-8">
<path d="M 2.148438 -3.128906 C 2.664062 -3.785156 3.042969 -4.441406 3.28125 -5.097656 L 3.730469 -4.949219 C 3.652344 -4.769531 3.570312 -4.59375 3.480469 -4.417969 L 5.640625 -4.417969 L 5.640625 -3.996094 C 5.367188 -3.527344 4.996094 -3.089844 4.515625 -2.683594 C 4.976562 -2.429688 5.476562 -2.25 6.027344 -2.144531 C 5.9375 -1.953125 5.871094 -1.78125 5.832031 -1.625 C 5.230469 -1.808594 4.660156 -2.0625 4.117188 -2.390625 C 3.589844 -2.050781 2.949219 -1.742188 2.203125 -1.460938 C 2.136719 -1.605469 2.070312 -1.746094 2 -1.875 C 2.632812 -2.078125 3.210938 -2.351562 3.742188 -2.6875 C 3.441406 -2.96875 3.203125 -3.277344 3.019531 -3.621094 C 2.84375 -3.347656 2.652344 -3.082031 2.445312 -2.8125 C 2.371094 -2.902344 2.273438 -3.007812 2.148438 -3.128906 M 2.589844 -1.488281 L 5.539062 -1.488281 L 5.539062 0.832031 L 5.078125 0.832031 L 5.078125 0.535156 L 3.050781 0.535156 L 3.050781 0.832031 L 2.589844 0.832031 L 2.589844 -1.488281 M 0.0820312 -1.316406 C 0.507812 -1.980469 0.808594 -2.699219 0.980469 -3.476562 L 0.125 -3.476562 L 0.125 -3.894531 L 0.984375 -3.894531 L 0.984375 -5.058594 L 1.433594 -5.058594 L 1.433594 -3.894531 L 2.195312 -3.894531 L 2.195312 -3.476562 L 1.433594 -3.476562 L 1.433594 -2.820312 L 1.597656 -2.980469 C 1.8125 -2.773438 2.050781 -2.539062 2.308594 -2.277344 L 2 -1.984375 C 1.789062 -2.230469 1.597656 -2.445312 1.433594 -2.621094 L 1.433594 0.828125 L 0.984375 0.828125 L 0.984375 -2.34375 C 0.78125 -1.6875 0.546875 -1.167969 0.273438 -0.789062 C 0.222656 -0.960938 0.160156 -1.136719 0.0820312 -1.316406 M 5.078125 -1.058594 L 3.050781 -1.058594 L 3.050781 0.105469 L 5.078125 0.105469 L 5.078125 -1.058594 M 5.097656 -4.011719 L 3.257812 -4.011719 C 3.488281 -3.558594 3.769531 -3.203125 4.105469 -2.9375 C 4.511719 -3.25 4.839844 -3.605469 5.097656 -4.011719 Z "/>
</g>
<g id="glyph-0-9">
<path d="M 1.84375 -0.738281 L 1.339844 0.851562 L 0.921875 0.851562 L 1.289062 -0.738281 Z "/>
</g>
<g id="glyph-0-10">
<path d="M 1.132812 0.785156 L 0.679688 0.785156 L 0.679688 -1.171875 L 2.625 -1.171875 L 2.722656 -1.636719 L 0.121094 -1.636719 L 0.121094 -2.007812 L 5.992188 -2.007812 L 5.992188 -1.636719 L 3.1875 -1.636719 L 3.066406 -1.171875 L 5.460938 -1.171875 L 5.460938 0.164062 C 5.460938 0.558594 5.261719 0.753906 4.871094 0.753906 C 4.679688 0.753906 4.46875 0.75 4.242188 0.742188 C 4.230469 0.613281 4.203125 0.457031 4.160156 0.285156 C 4.394531 0.308594 4.585938 0.320312 4.738281 0.320312 C 4.917969 0.320312 5.007812 0.238281 5.007812 0.0820312 L 5.007812 -0.800781 L 3.980469 -0.800781 L 3.980469 0.617188 L 3.554688 0.617188 L 3.554688 -0.800781 L 2.566406 -0.800781 L 2.566406 0.617188 L 2.140625 0.617188 L 2.140625 -0.800781 L 1.132812 -0.800781 L 1.132812 0.785156 M 0.320312 -4.074219 L 2.839844 -4.074219 L 2.839844 -4.417969 L 0.621094 -4.417969 L 0.621094 -4.789062 L 5.441406 -4.789062 L 5.441406 -4.417969 L 3.265625 -4.417969 L 3.265625 -4.074219 L 5.789062 -4.074219 L 5.789062 -2.960938 L 5.328125 -2.960938 L 5.328125 -3.703125 L 3.265625 -3.703125 L 3.265625 -2.28125 L 2.839844 -2.28125 L 2.839844 -3.703125 L 0.78125 -3.703125 L 0.78125 -2.960938 L 0.320312 -2.960938 L 0.320312 -4.074219 M 3.582031 -2.6875 L 4.984375 -2.6875 L 4.984375 -2.367188 L 3.582031 -2.367188 L 3.582031 -2.6875 M 1.121094 -3.355469 L 2.523438 -3.355469 L 2.523438 -3.035156 L 1.121094 -3.035156 L 1.121094 -3.355469 M 1.121094 -2.6875 L 2.523438 -2.6875 L 2.523438 -2.367188 L 1.121094 -2.367188 L 1.121094 -2.6875 M 3.582031 -3.355469 L 4.984375 -3.355469 L 4.984375 -3.035156 L 3.582031 -3.035156 Z "/>
</g>
<g id="glyph-0-11">
<path d="M 2.136719 -4.40625 L 3.085938 -4.40625 C 3.179688 -4.65625 3.253906 -4.898438 3.304688 -5.136719 L 3.765625 -5.050781 C 3.691406 -4.824219 3.609375 -4.609375 3.519531 -4.40625 L 5.363281 -4.40625 L 5.363281 -2.558594 L 4.921875 -2.558594 L 4.921875 -2.785156 L 2.589844 -2.785156 L 2.589844 -2.109375 L 5.484375 -2.109375 L 5.484375 -0.105469 L 5.042969 -0.105469 L 5.042969 -0.414062 L 2.589844 -0.414062 L 2.589844 -0.0625 L 2.136719 -0.0625 L 2.136719 -4.40625 M 2.546875 0.207031 L 3.921875 0.234375 L 6.03125 0.183594 C 5.964844 0.339844 5.898438 0.496094 5.835938 0.640625 L 3.808594 0.671875 L 2.507812 0.636719 C 1.84375 0.628906 1.351562 0.402344 1.039062 -0.0429688 C 0.921875 0.046875 0.691406 0.300781 0.339844 0.71875 L 0.0820312 0.210938 C 0.332031 -0.0117188 0.578125 -0.230469 0.824219 -0.4375 L 0.824219 -2.519531 L 0.144531 -2.519531 L 0.144531 -2.957031 L 1.289062 -2.957031 L 1.289062 -0.347656 C 1.574219 0.00390625 1.992188 0.1875 2.546875 0.207031 M 5.042969 -1.714844 L 2.589844 -1.714844 L 2.589844 -0.808594 L 5.042969 -0.808594 L 5.042969 -1.714844 M 4.921875 -4.011719 L 2.589844 -4.011719 L 2.589844 -3.175781 L 4.921875 -3.175781 L 4.921875 -4.011719 M 0.699219 -5.027344 C 0.992188 -4.679688 1.300781 -4.292969 1.617188 -3.863281 L 1.1875 -3.578125 C 0.929688 -3.976562 0.640625 -4.371094 0.328125 -4.757812 Z "/>
</g>
<g id="glyph-0-12">
<path d="M 2.949219 -4.078125 L 2.949219 -3.023438 L 5.960938 -3.023438 L 5.960938 -2.582031 L 4.769531 -2.582031 L 4.769531 -0.0820312 L 4.296875 -0.0820312 L 4.296875 -2.582031 L 2.945312 -2.582031 C 2.914062 -1.519531 2.640625 -0.6875 2.125 -0.0859375 C 2.007812 -0.1875 1.878906 -0.292969 1.738281 -0.402344 C 2.238281 -0.984375 2.488281 -1.777344 2.488281 -2.785156 L 2.488281 -4.496094 C 3.460938 -4.558594 4.496094 -4.683594 5.597656 -4.867188 L 5.703125 -4.425781 C 4.695312 -4.269531 3.777344 -4.15625 2.949219 -4.078125 M 2.578125 0.140625 L 4.328125 0.171875 L 6.027344 0.109375 C 5.960938 0.269531 5.894531 0.425781 5.835938 0.582031 L 4.175781 0.59375 L 2.53125 0.570312 C 1.859375 0.558594 1.363281 0.332031 1.050781 -0.109375 C 0.9375 -0.0234375 0.707031 0.226562 0.359375 0.640625 L 0.105469 0.140625 C 0.414062 -0.140625 0.660156 -0.359375 0.839844 -0.511719 L 0.839844 -2.5625 L 0.148438 -2.5625 L 0.148438 -2.992188 L 1.300781 -2.992188 L 1.300781 -0.402344 C 1.585938 -0.0585938 2.011719 0.121094 2.578125 0.140625 M 0.757812 -5.039062 C 1.039062 -4.707031 1.339844 -4.328125 1.660156 -3.910156 L 1.242188 -3.605469 C 0.898438 -4.113281 0.617188 -4.503906 0.394531 -4.777344 Z "/>
</g>
<g id="glyph-0-13">
<path d="M 2.546875 -3.410156 C 2.546875 -3.660156 2.464844 -3.855469 2.308594 -3.996094 C 2.152344 -4.140625 1.9375 -4.210938 1.667969 -4.210938 C 1.476562 -4.210938 1.285156 -4.160156 1.089844 -4.0625 C 0.894531 -3.964844 0.710938 -3.828125 0.542969 -3.644531 L 0.542969 -4.214844 C 0.695312 -4.371094 0.867188 -4.492188 1.058594 -4.574219 C 1.25 -4.65625 1.476562 -4.699219 1.734375 -4.699219 C 2.152344 -4.699219 2.488281 -4.585938 2.742188 -4.363281 C 2.996094 -4.140625 3.125 -3.835938 3.125 -3.457031 C 3.125 -3.113281 3.046875 -2.820312 2.890625 -2.570312 C 2.734375 -2.324219 2.464844 -2.070312 2.089844 -1.808594 C 1.703125 -1.542969 1.445312 -1.351562 1.3125 -1.234375 C 1.183594 -1.121094 1.09375 -1.007812 1.042969 -0.902344 C 0.988281 -0.796875 0.964844 -0.671875 0.964844 -0.519531 L 3.261719 -0.519531 L 3.261719 0 L 0.355469 0 L 0.355469 -0.230469 C 0.355469 -0.496094 0.390625 -0.722656 0.464844 -0.910156 C 0.535156 -1.09375 0.65625 -1.277344 0.824219 -1.453125 C 0.992188 -1.628906 1.25 -1.839844 1.605469 -2.085938 C 1.96875 -2.339844 2.214844 -2.5625 2.347656 -2.753906 C 2.480469 -2.949219 2.546875 -3.164062 2.546875 -3.410156 Z "/>
</g>
</g>
</defs>
<g fill="rgb(100%, 100%, 100%)" fill-opacity="1">
<use xlink:href="#glyph-0-0" x="30" y="26.46582"/>
<use xlink:href="#glyph-0-1" x="36" y="26.46582"/>
<use xlink:href="#glyph-0-2" x="42" y="26.46582"/>
<use xlink:href="#glyph-0-3" x="48" y="26.46582"/>
<use xlink:href="#glyph-0-4" x="54" y="26.46582"/>
<use xlink:href="#glyph-0-5" x="60" y="26.46582"/>
<use xlink:href="#glyph-0-6" x="64" y="26.46582"/>
<use xlink:href="#glyph-0-7" x="68" y="26.46582"/>
<use xlink:href="#glyph-0-8" x="74" y="26.46582"/>
<use xlink:href="#glyph-0-9" x="80" y="26.46582"/>
<use xlink:href="#glyph-0-10" x="86" y="26.46582"/>
<use xlink:href="#glyph-0-11" x="92" y="26.46582"/>
<use xlink:href="#glyph-0-12" x="98" y="26.46582"/>
<use xlink:href="#glyph-0-13" x="104" y="26.46582"/>
<use xlink:href="#glyph-0-6" x="108" y="26.46582"/>
<use xlink:href="#glyph-0-7" x="112" y="26.46582"/>
<use xlink:href="#glyph-0-8" x="118" y="26.46582"/>
</g>
</svg>
