<?xml version="1.0" encoding="UTF-8"?>
<svg xmlns="http://www.w3.org/2000/svg" xmlns:xlink="http://www.w3.org/1999/xlink" width="1920" height="1080" viewBox="0 0 1920 1080">
<defs>
<g>
<g id="glyph-0-0">
<path d="M 0.488281 -5.722656 L 6.707031 -5.722656 L 6.707031 0.914062 L 6.179688 0.914062 L 6.179688 0.574219 L 1.015625 0.574219 L 1.015625 0.914062 L 0.488281 0.914062 L 0.488281 -5.722656 M 6.179688 -5.214844 L 1.015625 -5.214844 L 1.015625 0.0664062 L 6.179688 0.0664062 L 6.179688 -5.214844 M 1.253906 -3.488281 C 1.898438 -3.953125 2.429688 -4.5 2.84375 -5.132812 L 3.308594 -4.914062 C 3.222656 -4.785156 3.128906 -4.65625 3.027344 -4.53125 L 5.523438 -4.53125 L 5.523438 -4.117188 C 5.175781 -3.695312 4.738281 -3.320312 4.199219 -2.984375 C 4.695312 -2.816406 5.304688 -2.6875 6.023438 -2.59375 C 5.914062 -2.378906 5.835938 -2.203125 5.789062 -2.0625 C 4.957031 -2.253906 4.25 -2.46875 3.675781 -2.707031 C 3.097656 -2.449219 2.335938 -2.195312 1.382812 -1.949219 C 1.316406 -2.105469 1.238281 -2.257812 1.144531 -2.402344 C 1.96875 -2.570312 2.648438 -2.765625 3.1875 -2.984375 C 2.855469 -3.210938 2.570312 -3.472656 2.332031 -3.769531 C 2.109375 -3.554688 1.863281 -3.347656 1.601562 -3.140625 C 1.507812 -3.242188 1.390625 -3.355469 1.253906 -3.488281 M 1.761719 -0.757812 L 1.910156 -1.246094 C 3.085938 -1.089844 4.21875 -0.910156 5.304688 -0.703125 L 5.113281 -0.164062 C 4.074219 -0.394531 2.957031 -0.59375 1.761719 -0.757812 M 4.824219 -4.09375 L 2.648438 -4.09375 C 2.640625 -4.085938 2.632812 -4.078125 2.628906 -4.070312 C 2.898438 -3.71875 3.246094 -3.429688 3.660156 -3.207031 C 4.148438 -3.464844 4.535156 -3.761719 4.824219 -4.09375 M 2.503906 -1.695312 L 2.644531 -2.167969 C 3.335938 -2.066406 4.0625 -1.949219 4.824219 -1.816406 L 4.675781 -1.324219 C 3.90625 -1.476562 3.179688 -1.601562 2.503906 -1.695312 Z "/>
</g>
<g id="glyph-0-1">
<path d="M 3.28125 -5.460938 L 3.28125 -1.855469 L 4.097656 -1.855469 L 4.097656 -1.285156 L 3.28125 -1.285156 L 3.28125 0 L 2.609375 0 L 2.609375 -1.285156 L 0.0585938 -1.285156 L 0.0585938 -1.824219 C 0.515625 -2.332031 0.96875 -2.921875 1.429688 -3.585938 C 1.886719 -4.253906 2.265625 -4.878906 2.5625 -5.460938 L 3.28125 -5.460938 M 0.835938 -1.855469 L 2.609375 -1.855469 L 2.609375 -4.457031 C 2.363281 -4.019531 2.101562 -3.59375 1.824219 -3.179688 C 1.542969 -2.765625 1.214844 -2.324219 0.835938 -1.855469 Z "/>
</g>
</g>
</defs>
<g fill="rgb(90.196078%, 35.294118%, 29.803922%)" fill-opacity="1">
<use xlink:href="#glyph-0-0" x="30" y="27.642578"/>
<use xlink:href="#glyph-0-1" x="37" y="27.642578"/>
</g>
</svg>
